{
	"asset":{
		"generator":"Khronos glTF Blender I/O v5.0.21",
		"version":"2.0"
	},
	"scene":0,
	"scenes":[
		{
			"name":"Scene",
			"nodes":[
				0
			]
		}
	],
	"nodes":[
		{
			"mesh":0,
			"name":"texture_v100.001",
			"rotation":[
				0.70710688829422,
				0,
				0,
				0.7071066498756409
			],
			"scale":[
				15.450000762939453,
				15.45000171661377,
				15.45000171661377
			],
			"translation":[
				-0.00261728186160326,
				-0.10521376132965088,
				-0.11588574200868607
			]
		}
	],
	"materials":[
		{
			"doubleSided":true,
			"name":"Material.001",
			"pbrMetallicRoughness":{
				"metallicFactor":0,
				"roughnessFactor":0.5
			}
		}
	],
	"meshes":[
		{
			"name":"texture_v100",
			"primitives":[
				{
					"attributes":{
						"POSITION":0,
						"NORMAL":1,
						"TEXCOORD_0":2
					},
					"indices":3,
					"material":0
				}
			]
		}
	],
	"accessors":[
		{
			"bufferView":0,
			"componentType":5126,
			"count":24408,
			"max":[
				0.26463326811790466,
				0.6501527428627014,
				0.19329923391342163
			],
			"min":[
				-0.2592347264289856,
				-0.4189682900905609,
				-0.42417776584625244
			],
			"type":"VEC3"
		},
		{
			"bufferView":1,
			"componentType":5126,
			"count":24408,
			"type":"VEC3"
		},
		{
			"bufferView":2,
			"componentType":5126,
			"count":24408,
			"type":"VEC2"
		},
		{
			"bufferView":3,
			"componentType":5123,
			"count":120000,
			"type":"SCALAR"
		}
	],
	"bufferViews":[
		{
			"buffer":0,
			"byteLength":292896,
			"byteOffset":0,
			"target":34962
		},
		{
			"buffer":0,
			"byteLength":292896,
			"byteOffset":292896,
			"target":34962
		},
		{
			"buffer":0,
			"byteLength":195264,
			"byteOffset":585792,
			"target":34962
		},
		{
			"buffer":0,
			"byteLength":240000,
			"byteOffset":781056,
			"target":34963
		}
	],
	"buffers":[
		{
			"byteLength":1021056,
			"uri":"%E5%9D%A6%E5%85%8B.bin"
		}
	]
}
